<svg width="528" height="207" viewBox="0 0 528 207" fill="none" xmlns="http://www.w3.org/2000/svg">
<g clip-path="url(#clip0_175_830)">
<path d="M65.3353 152.402L0 86.9889V80.949L80.8525 0.00012207H86.8852L167.738 80.949V86.9889L156.447 98.2934L150.406 92.2455L158.681 83.9689L83.8689 9.06801L9.0571 83.9689L64.0852 139.063L64.0933 68.514L34.3815 98.2531L28.3488 92.2051L65.3434 55.1665L72.6261 58.1864V149.382L65.3353 152.402Z" fill="black"/>
<path d="M86.8852 207.56H80.8525L0 126.627V120.58L11.3073 109.267L17.3399 115.315L9.06516 123.599L83.8689 198.492L158.673 123.599L103.653 68.5219L103.661 139.054L133.364 109.307L139.405 115.355L102.411 152.394L95.1197 149.374L95.1116 58.1944L102.402 55.1744L167.73 120.58V126.627L86.8852 207.56Z" fill="black"/>
<path d="M418.046 146.451V148.785C418.046 151.458 415.642 153.226 412.965 153.226C410.593 153.226 409.69 152.023 409.69 150.327C409.69 148.252 411.045 147.356 414.432 146.903L418.046 146.451ZM414.319 135.906C409.464 135.906 406.311 137.868 406.198 142.196H410.222C410.295 139.935 411.464 139.071 414.207 139.071C417.255 139.071 418.046 139.903 418.046 142.422V143.48L413.271 144.045C407.666 144.764 405.408 147.057 405.408 150.634C405.408 154.211 407.851 156.698 412.102 156.698C414.134 156.698 416.537 156.06 418.086 154.066C418.158 154.784 418.312 155.495 418.61 156.173H422.86C422.296 154.817 422.183 153.387 422.183 151.918V142.131C422.183 138.215 419.997 135.914 414.319 135.914M395.6 135.914C393.383 135.914 391.31 136.818 389.81 138.966V136.447H385.713V156.181H389.85V145.038C389.85 141.76 391.882 139.467 394.592 139.467C397.56 139.467 398.238 141.574 398.238 144.885V156.181H402.375V143.488C402.375 138.78 399.964 135.922 395.6 135.922M382.874 136.447H368.397V139.911H377.873L367.308 153.016V156.181H383.067V152.645H372.462L382.882 139.693V136.455L382.874 136.447ZM357.243 135.922C351.339 135.922 347.653 140.29 347.653 146.314C347.653 152.338 351.154 156.706 357.283 156.706C361.687 156.706 364.614 154.26 366.082 150.941L362.437 149.399C361.606 151.474 360.364 153.242 357.436 153.242C354.049 153.242 351.984 150.723 351.984 146.241C351.984 141.76 354.202 139.426 357.436 139.426C359.695 139.426 361.275 140.597 362.098 142.592L365.711 141.122C364.316 138.037 361.348 135.93 357.251 135.93M344.419 136.455H340.282V156.189H344.419V136.455ZM344.686 128.324H340.024V132.619H344.686V128.324ZM329.58 135.93C327.281 135.93 324.878 136.834 323.337 139.168C322.361 137.101 320.514 135.93 317.805 135.93C315.659 135.93 313.893 136.794 312.465 138.675V136.455H308.368V156.189H312.506V145.006C312.506 141.728 314.312 139.467 316.829 139.467C319.684 139.467 320.135 141.574 320.135 145.563V156.181H324.273V144.998C324.273 141.72 326.079 139.459 328.636 139.459C331.459 139.459 331.91 141.566 331.91 145.555V156.173H336.048V143.52C336.048 138.772 333.902 135.914 329.58 135.914M295.4 139.418C298.634 139.418 300.779 141.833 300.779 146.233C300.779 150.634 298.787 153.234 295.4 153.234C292.012 153.234 289.98 150.715 289.98 146.233C289.98 141.752 292.125 139.418 295.4 139.418ZM295.4 135.914C289.383 135.914 285.657 140.242 285.657 146.306C285.657 152.37 289.303 156.698 295.4 156.698C301.497 156.698 305.102 152.443 305.102 146.306C305.102 140.169 301.303 135.914 295.4 135.914ZM275.777 135.914C273.559 135.914 271.487 136.818 269.987 138.966V136.447H265.89V156.181H270.027V145.038C270.027 141.76 272.059 139.467 274.769 139.467C277.737 139.467 278.415 141.574 278.415 144.885V156.181H282.552V143.488C282.552 138.78 280.149 135.922 275.785 135.922M252.929 139.426C256.163 139.426 258.308 141.841 258.308 146.241C258.308 150.642 256.316 153.242 252.929 153.242C249.542 153.242 247.509 150.723 247.509 146.241C247.509 141.76 249.655 139.426 252.929 139.426ZM252.929 135.922C246.912 135.922 243.186 140.25 243.186 146.314C243.186 152.378 246.832 156.706 252.929 156.706C259.026 156.706 262.631 152.451 262.631 146.314C262.631 140.177 258.833 135.922 252.929 135.922ZM229.387 129.826H225.25V156.181H229.387V149.665L232.436 146.766L238.452 156.181H243.267L235.291 144.021L243.073 136.455H237.992L229.379 144.925V129.826H229.387ZM221.765 129.826H205.143V156.181H222.104V152.491H209.394V144.586H220.975V140.896H209.394V133.516H221.765V129.826Z" fill="black"/>
<path d="M468.34 106.457V108.791C468.34 111.463 465.936 113.232 463.259 113.232C460.888 113.232 459.984 112.029 459.984 110.333C459.984 108.258 461.339 107.361 464.726 106.909L468.34 106.457ZM464.614 95.9114C459.758 95.9114 456.605 97.8655 456.492 102.202H460.517C460.589 99.9407 461.759 99.0767 464.501 99.0767C467.549 99.0767 468.34 99.9084 468.34 102.428V103.486L463.565 104.051C457.96 104.769 455.702 107.063 455.702 110.64C455.702 114.217 458.145 116.704 462.396 116.704C464.428 116.704 466.831 116.066 468.38 114.071C468.453 114.79 468.606 115.501 468.904 116.179H473.154C472.59 114.822 472.477 113.393 472.477 111.924V102.137C472.477 98.2208 470.299 95.9195 464.614 95.9195M451.871 89.1448C447.322 89.1448 445.628 91.5915 445.628 94.5307V96.5251H442.918V99.65H445.628V116.179H449.766V99.65H454.879V96.5251H449.766V94.7164C449.766 92.8754 450.669 92.4232 452.435 92.4232C453.492 92.4232 454.952 92.7623 455.782 93.0288V89.7504C454.726 89.4517 453.266 89.1448 451.871 89.1448ZM432.926 99.2382C435.668 99.2382 437.402 100.934 437.668 104.172H427.893C428.192 101.007 429.998 99.2382 432.934 99.2382M432.974 95.9276C426.845 95.9276 423.611 100.296 423.611 106.247C423.611 112.198 427.071 116.712 433.24 116.712C437.192 116.712 440.047 115.057 441.814 112.158L438.394 110.389C437.491 112.045 435.837 113.288 433.394 113.288C429.974 113.288 428.014 111.213 427.901 107.224H441.967V106.32C441.967 100.409 438.733 95.9276 432.974 95.9276ZM421.167 95.9276C419.022 95.9276 416.989 97.1711 415.675 99.6904V96.4524H411.578V116.187H415.715V107.224C415.715 101.766 418.118 100.223 421.28 100.223C421.546 100.223 421.844 100.223 422.449 100.264V96.0083C422.07 95.968 421.546 95.9357 421.167 95.9357M403.827 91.3412H399.69V96.5332H396.98V99.6581H399.69V111.366C399.69 114.532 401.157 116.712 405.367 116.712C406.908 116.712 408.222 116.413 409.279 116.106V112.796C408.489 113.022 407.359 113.248 406.23 113.248C404.392 113.248 403.827 112.416 403.827 110.761V99.65H408.827V96.5251H403.827V91.3331V91.3412ZM385.551 116.873C392.512 116.873 396.084 113.45 396.084 108.774C396.084 104.099 393.415 101.846 387.06 100.716C381.116 99.6985 380.027 98.6407 380.027 96.5332C380.027 94.1592 382.059 92.8431 385.334 92.8431C389.544 92.8431 391.576 94.8779 392.633 96.3071L395.794 93.9331C393.802 91.3331 390.455 89.1529 385.342 89.1529C379.583 89.1529 375.712 92.0921 375.712 96.6866C375.712 100.869 378.607 103.235 384.366 104.18C390.608 105.197 391.697 106.514 391.697 109.001C391.697 111.488 389.028 113.183 385.64 113.183C381.842 113.183 379.317 111.601 377.325 109.267L374.389 111.867C377.099 115.404 381.422 116.873 385.56 116.873M359.348 106.481V108.815C359.348 111.488 356.945 113.256 354.267 113.256C351.896 113.256 350.993 112.053 350.993 110.357C350.993 108.282 352.348 107.386 355.735 106.933L359.348 106.481ZM355.622 95.9357C350.767 95.9357 347.613 97.8897 347.5 102.226H351.525C351.597 99.9649 352.767 99.1009 355.509 99.1009C358.558 99.1009 359.348 99.9326 359.348 102.452V103.51L354.573 104.075C348.968 104.794 346.71 107.087 346.71 110.664C346.71 114.241 349.154 116.728 353.404 116.728C355.436 116.728 357.84 116.09 359.388 114.096C359.461 114.814 359.614 115.525 359.913 116.203H364.163C363.598 114.847 363.485 113.417 363.485 111.948V102.161C363.485 98.245 361.308 95.9437 355.622 95.9437M336.903 95.9437C334.685 95.9437 332.612 96.8481 331.112 98.996V96.4767H327.015V116.211H331.152V105.068C331.152 101.79 333.185 99.4966 335.895 99.4966C338.863 99.4966 339.54 101.604 339.54 104.915V116.211H343.678V103.518C343.678 98.8103 341.274 95.9518 336.903 95.9518M322.757 89.8554H318.619V116.211H322.757V89.8554ZM310.264 106.497V108.831C310.264 111.504 307.86 113.272 305.183 113.272C302.812 113.272 301.908 112.069 301.908 110.373C301.908 108.298 303.263 107.402 306.651 106.95L310.264 106.497ZM306.538 95.9518C301.683 95.9518 298.529 97.9059 298.416 102.242H302.441C302.513 99.9811 303.683 99.1171 306.425 99.1171C309.473 99.1171 310.264 99.9488 310.264 102.468V103.526L305.489 104.091C299.884 104.81 297.626 107.103 297.626 110.68C297.626 114.257 300.07 116.744 304.32 116.744C306.352 116.744 308.756 116.106 310.296 114.112C310.369 114.83 310.522 115.541 310.82 116.219H315.071C314.506 114.863 314.393 113.434 314.393 111.964V102.177C314.393 98.2612 312.216 95.9599 306.53 95.9599M294.448 96.4847H290.311V115.84C290.311 119.005 289.674 119.643 287.343 119.643C287.157 119.643 287.004 119.643 286.552 119.603V122.8C287.23 122.954 287.907 123.026 288.811 123.026C291.666 123.026 294.448 121.371 294.448 117.116V96.4767V96.4847ZM294.714 88.3535H290.053V92.6493H294.714V88.3535ZM278.907 95.9599C273.003 95.9599 269.317 100.328 269.317 106.352C269.317 112.376 272.818 116.744 278.947 116.744C283.351 116.744 286.278 114.298 287.746 110.979L284.101 109.437C283.27 111.512 282.028 113.28 279.1 113.28C275.713 113.28 273.648 110.761 273.648 106.279C273.648 101.798 275.866 99.4643 279.1 99.4643C281.359 99.4643 282.939 100.635 283.762 102.63L287.375 101.16C285.98 98.0755 283.012 95.9599 278.915 95.9599M258.163 99.2705C260.906 99.2705 262.64 100.966 262.906 104.204H253.123C253.421 101.039 255.228 99.2705 258.163 99.2705ZM258.204 95.9599C252.074 95.9599 248.84 100.328 248.84 106.279C248.84 112.23 252.3 116.744 258.47 116.744C262.422 116.744 265.277 115.089 267.043 112.19L263.623 110.422C262.72 112.077 261.067 113.32 258.623 113.32C255.204 113.32 253.244 111.245 253.131 107.256H267.196V106.352C267.196 100.441 263.962 95.9599 258.204 95.9599ZM237.154 99.4643C240.501 99.4643 242.267 102.097 242.267 106.239C242.267 110.793 240.162 113.28 237.114 113.28C234.331 113.28 232.073 111.132 232.073 106.312C232.073 101.491 234.25 99.4562 237.146 99.4562M237.936 95.9518C235.904 95.9518 233.758 96.7028 232.186 98.6649V96.4767H228.121V122.348H232.218V114.063C233.42 115.799 235.412 116.736 237.896 116.736C243.316 116.736 246.55 112.069 246.55 106.271C246.55 100.474 243.09 95.9518 237.936 95.9518ZM214.289 116.89C221.249 116.89 224.822 113.466 224.822 108.791C224.822 104.115 222.153 101.862 215.797 100.732C209.854 99.7146 208.765 98.6568 208.765 96.5493C208.765 94.1754 210.797 92.8592 214.063 92.8592C218.273 92.8592 220.306 94.894 221.362 96.3232L224.524 93.9493C222.532 91.3492 219.185 89.1691 214.063 89.1691C208.313 89.1691 204.434 92.1083 204.434 96.7028C204.434 100.885 207.329 103.251 213.088 104.196C219.33 105.213 220.419 106.53 220.419 109.017C220.419 111.504 217.749 113.199 214.362 113.199C210.563 113.199 208.047 111.617 206.047 109.283L203.111 111.883C205.821 115.42 210.144 116.89 214.281 116.89" fill="black"/>
<path d="M315.716 66.4708V68.8043C315.716 71.4771 313.312 73.2454 310.635 73.2454C308.264 73.2454 307.36 72.0423 307.36 70.3466C307.36 68.2714 308.715 67.3751 312.103 66.9229L315.716 66.4708ZM311.99 55.9252C307.135 55.9252 303.981 57.8874 303.868 62.2154H307.893C307.965 59.9545 309.135 59.0905 311.877 59.0905C314.925 59.0905 315.716 59.9222 315.716 62.4415V63.4993L310.941 64.0645C305.336 64.7831 303.078 67.0764 303.078 70.6535C303.078 74.2305 305.522 76.7176 309.772 76.7176C311.804 76.7176 314.208 76.0797 315.756 74.0852C315.829 74.8038 315.982 75.5144 316.28 76.1927H320.531C319.966 74.8361 319.853 73.4069 319.853 71.9373V62.1508C319.853 58.2346 317.668 55.9413 311.99 55.9413M288.657 49.8449H284.52V76.2008H288.657V69.6845L291.706 66.7857L297.723 76.2008H302.537L294.561 64.0403L302.344 56.4743H297.263L288.649 64.9446V49.8449H288.657ZM281.681 56.4743H267.196V59.9383H276.673L266.107 73.0436V76.2088H281.867V72.6721H271.261L281.681 59.7203V56.4823V56.4743ZM254.72 59.4458C257.502 59.4458 259.76 61.7067 259.76 66.3012C259.76 70.8957 257.688 73.2697 254.72 73.2697C251.332 73.2697 249.526 70.7826 249.526 66.3012C249.526 61.8197 251.445 59.4458 254.72 59.4458ZM263.712 49.8449H259.575V58.5414C258.292 56.9184 256.526 55.9413 253.97 55.9413C248.703 55.9413 245.211 60.3098 245.211 66.3739C245.211 72.438 248.598 76.7256 253.865 76.7256C255.784 76.7256 258.075 76.0474 259.623 73.9399V76.2008H263.72V49.8449H263.712ZM233.226 59.4458C236.46 59.4458 238.606 61.852 238.606 66.2608C238.606 70.6696 236.613 73.2616 233.226 73.2616C229.839 73.2616 227.806 70.7423 227.806 66.2608C227.806 61.7794 229.952 59.4458 233.226 59.4458ZM233.226 55.9413C227.21 55.9413 223.483 60.2694 223.483 66.3335C223.483 72.3976 227.129 76.7256 233.226 76.7256C239.323 76.7256 242.928 72.4703 242.928 66.3335C242.928 60.1967 239.13 55.9413 233.226 55.9413ZM240.033 48.6014H234.654L231.234 53.8742H234.734L240.041 48.6014H240.033ZM210.321 72.3976V63.5477L217.169 59.8576V56.6923L210.321 60.3824V49.8369H206.071V62.6433L203.135 64.226V67.4236L206.071 65.8409V76.2008H222.096V72.3976H210.321Z" fill="black"/>
</g>
<defs>
<clipPath id="clip0_175_830">
<rect width="528" height="207" fill="white"/>
</clipPath>
</defs>
</svg>
